HIERARCHY
ROOT hips_JNT
{
    OFFSET 0 0 0
    CHANNELS 6 Xposition Yposition Zposition Zrotation Xrotation Yrotation
    JOINT spine_JNT
    {
        OFFSET -0.000424254 9.31981 2.54342
        CHANNELS 3 Zrotation Xrotation Yrotation
        JOINT spine1_JNT
        {
            OFFSET 0 10.8731 -4.54485e-05
            CHANNELS 3 Zrotation Xrotation Yrotation
            JOINT spine2_JNT
            {
                OFFSET 0 12.4264 -5.95116
                CHANNELS 3 Zrotation Xrotation Yrotation
                JOINT neck_JNT
                {
                    OFFSET 0 13.9797 -1.46048
                    CHANNELS 3 Zrotation Xrotation Yrotation
                    JOINT head_JNT
                    {
                        OFFSET 0 5.8702 2.0915
                        CHANNELS 3 Zrotation Xrotation Yrotation
                        End Site
                        {
                            OFFSET 0 0 0
                        }
                    }
                }
                JOINT l_shoulder_JNT
                {
                    OFFSET 4.39914 12.861 -1.48501
                    CHANNELS 3 Zrotation Xrotation Yrotation
                    JOINT l_arm_JNT
                    {
                        OFFSET 8.75735 -2.31198 -0.0490516
                        CHANNELS 3 Zrotation Xrotation Yrotation
                        JOINT l_forearm_JNT
                        {
                            OFFSET 26.9001 -4.76837e-05 1.2666e-05
                            CHANNELS 3 Zrotation Xrotation Yrotation
                            JOINT l_hand_JNT
                            {
                                OFFSET 23.0148 -4.76837e-05 -3.72529e-06
                                CHANNELS 3 Zrotation Xrotation Yrotation
                                JOINT l_handThumb1_JNT
                                {
                                    OFFSET 3.63 -0.779998 2.13
                                    CHANNELS 3 Zrotation Xrotation Yrotation
                                    JOINT l_handThumb2_JNT
                                    {
                                        OFFSET 3.55114 -2.11837 2.24006
                                        CHANNELS 3 Zrotation Xrotation Yrotation
                                        JOINT l_handThumb3_JNT
                                        {
                                            OFFSET 2.15911 -1.11631 0.963467
                                            CHANNELS 3 Zrotation Xrotation Yrotation
                                            End Site
                                            {
                                                OFFSET 0 0 0
                                            }
                                        }
                                    }
                                }
                                JOINT l_handIndex1_JNT
                                {
                                    OFFSET 10.5149 -0.0410199 2.19757
                                    CHANNELS 3 Zrotation Xrotation Yrotation
                                    JOINT l_handIndex2_JNT
                                    {
                                        OFFSET 2.75183 -0.102866 -0.139054
                                        CHANNELS 3 Zrotation Xrotation Yrotation
                                        JOINT l_handIndex3_JNT
                                        {
                                            OFFSET 2.35301 -0.0733972 -0.0904871
                                            CHANNELS 3 Zrotation Xrotation Yrotation
                                            End Site
                                            {
                                                OFFSET 0 0 0
                                            }
                                        }
                                    }
                                }
                                JOINT l_handMiddle1_JNT
                                {
                                    OFFSET 10.0671 0.139201 0.0595726
                                    CHANNELS 3 Zrotation Xrotation Yrotation
                                    JOINT l_handMiddle2_JNT
                                    {
                                        OFFSET 3.90903 -0.288403 -0.119066
                                        CHANNELS 3 Zrotation Xrotation Yrotation
                                        JOINT l_handMiddle3_JNT
                                        {
                                            OFFSET 2.3284 -0.0191092 -0.0594396
                                            CHANNELS 3 Zrotation Xrotation Yrotation
                                            End Site
                                            {
                                                OFFSET 0 0 0
                                            }
                                        }
                                    }
                                }
                                JOINT l_handRing1_JNT
                                {
                                    OFFSET 9.46811 0.132239 -1.80983
                                    CHANNELS 3 Zrotation Xrotation Yrotation
                                    JOINT l_handRing2_JNT
                                    {
                                        OFFSET 3.28153 -0.224054 -0.0339366
                                        CHANNELS 3 Zrotation Xrotation Yrotation
                                        JOINT l_handRing3_JNT
                                        {
                                            OFFSET 2.245 -0.0702143 -0.00838935
                                            CHANNELS 3 Zrotation Xrotation Yrotation
                                            End Site
                                            {
                                                OFFSET 0 0 0
                                            }
                                        }
                                    }
                                }
                                JOINT l_handPinky1_JNT
                                {
                                    OFFSET 8.49077 -0.0777721 -3.58415
                                    CHANNELS 3 Zrotation Xrotation Yrotation
                                    JOINT l_handPinky2_JNT
                                    {
                                        OFFSET 2.53217 -0.0730753 -0.0170402
                                        CHANNELS 3 Zrotation Xrotation Yrotation
                                        JOINT l_handPinky3_JNT
                                        {
                                            OFFSET 1.95121 0.0251174 0.0170089
                                            CHANNELS 3 Zrotation Xrotation Yrotation
                                            End Site
                                            {
                                                OFFSET 0 0 0
                                            }
                                        }
                                    }
                                }
                            }
                        }
                    }
                }
                JOINT r_shoulder_JNT
                {
                    OFFSET -4.39782 12.8606 -1.48501
                    CHANNELS 3 Zrotation Xrotation Yrotation
                    JOINT r_arm_JNT
                    {
                        OFFSET -8.75732 -2.312 -0.0490502
                        CHANNELS 3 Zrotation Xrotation Yrotation
                        JOINT r_forearm_JNT
                        {
                            OFFSET -26.9 0 1.00583e-05
                            CHANNELS 3 Zrotation Xrotation Yrotation
                            JOINT r_hand_JNT
                            {
                                OFFSET -23.0149 0 0
                                CHANNELS 3 Zrotation Xrotation Yrotation
                                JOINT r_handThumb1_JNT
                                {
                                    OFFSET -3.63 -0.779998 2.13
                                    CHANNELS 3 Zrotation Xrotation Yrotation
                                    JOINT r_handThumb2_JNT
                                    {
                                        OFFSET -3.5512 -2.118 2.24006
                                        CHANNELS 3 Zrotation Xrotation Yrotation
                                        JOINT r_handThumb3_JNT
                                        {
                                            OFFSET -2.1591 -1.116 0.963467
                                            CHANNELS 3 Zrotation Xrotation Yrotation
                                            End Site
                                            {
                                                OFFSET 0 0 0
                                            }
                                        }
                                    }
                                }
                                JOINT r_handIndex1_JNT
                                {
                                    OFFSET -10.5149 -0.0409961 2.19756
                                    CHANNELS 3 Zrotation Xrotation Yrotation
                                    JOINT r_handIndex2_JNT
                                    {
                                        OFFSET -2.7518 -0.102997 -0.13905
                                        CHANNELS 3 Zrotation Xrotation Yrotation
                                        JOINT r_handIndex3_JNT
                                        {
                                            OFFSET -2.353 -0.0730038 -0.0904899
                                            CHANNELS 3 Zrotation Xrotation Yrotation
                                            End Site
                                            {
                                                OFFSET 0 0 0
                                            }
                                        }
                                    }
                                }
                                JOINT r_handMiddle1_JNT
                                {
                                    OFFSET -10.0671 0.139999 0.05957
                                    CHANNELS 3 Zrotation Xrotation Yrotation
                                    JOINT r_handMiddle2_JNT
                                    {
                                        OFFSET -3.9091 -0.288999 -0.11907
                                        CHANNELS 3 Zrotation Xrotation Yrotation
                                        JOINT r_handMiddle3_JNT
                                        {
                                            OFFSET -2.3284 -0.019002 -0.05944
                                            CHANNELS 3 Zrotation Xrotation Yrotation
                                            End Site
                                            {
                                                OFFSET 0 0 0
                                            }
                                        }
                                    }
                                }
                                JOINT r_handRing1_JNT
                                {
                                    OFFSET -9.4681 0.133002 -1.80983
                                    CHANNELS 3 Zrotation Xrotation Yrotation
                                    JOINT r_handRing2_JNT
                                    {
                                        OFFSET -3.2816 -0.224996 -0.0339396
                                        CHANNELS 3 Zrotation Xrotation Yrotation
                                        JOINT r_handRing3_JNT
                                        {
                                            OFFSET -2.245 -0.0699997 -0.0083901
                                            CHANNELS 3 Zrotation Xrotation Yrotation
                                            End Site
                                            {
                                                OFFSET 0 0 0
                                            }
                                        }
                                    }
                                }
                                JOINT r_handPinky1_JNT
                                {
                                    OFFSET -8.4908 -0.0769973 -3.58415
                                    CHANNELS 3 Zrotation Xrotation Yrotation
                                    JOINT r_handPinky2_JNT
                                    {
                                        OFFSET -2.5322 -0.0740051 -0.0170402
                                        CHANNELS 3 Zrotation Xrotation Yrotation
                                        JOINT r_handPinky3_JNT
                                        {
                                            OFFSET -1.9512 0.0259995 0.0170097
                                            CHANNELS 3 Zrotation Xrotation Yrotation
                                            End Site
                                            {
                                                OFFSET 0 0 0
                                            }
                                        }
                                    }
                                }
                            }
                        }
                    }
                }
            }
        }
    }
    JOINT l_upleg_JNT
    {
        OFFSET 10.0614 -5.18575 -0.706233
        CHANNELS 3 Zrotation Xrotation Yrotation
        JOINT l_leg_JNT
        {
            OFFSET -0.348572 -45.5824 -0.819168
            CHANNELS 3 Zrotation Xrotation Yrotation
            JOINT l_foot_JNT
            {
                OFFSET 0.349145 -42.3325 -1.70849
                CHANNELS 3 Zrotation Xrotation Yrotation
                JOINT l_toebase_JNT
                {
                    OFFSET 0.0702709 -8.12666 12.8887
                    CHANNELS 3 Zrotation Xrotation Yrotation
                    End Site
                    {
                        OFFSET 0 0 0
                    }
                }
            }
        }
    }
    JOINT r_upleg_JNT
    {
        OFFSET -10.061 -5.18577 -0.706233
        CHANNELS 3 Zrotation Xrotation Yrotation
        JOINT r_leg_JNT
        {
            OFFSET 0.34858 -45.5824 -0.819165
            CHANNELS 3 Zrotation Xrotation Yrotation
            JOINT r_foot_JNT
            {
                OFFSET -0.34918 -42.3325 -1.70849
                CHANNELS 3 Zrotation Xrotation Yrotation
                JOINT r_toebase_JNT
                {
                    OFFSET -0.0702001 -8.12666 12.8887
                    CHANNELS 3 Zrotation Xrotation Yrotation
                    End Site
                    {
                        OFFSET 0 0 0
                    }
                }
            }
        }
    }
}
MOTION
Frames: 5
Frame Time: 0.033333
-0.265214 96.3262 -0.0845194 3.02148 5.94777 -13.3855 2.58861 1.14972 -2.41349 2.20549 0.975351 -2.35273 -1.06722e-07 9.60495e-07 0 -9.15528 32.3292 6.94317 -10.187 -7.87945 -0.664405 -1.06722e-07 9.60495e-07 0 -83.2717 17.6095 42.588 -1.04956e-05 1.07826e-06 -92.4165 -0.87629 -0.268593 0.349426 4.10661 20.7048 -22.2077 -0 0 0 -17.5547 -0.266891 1.72913 -27.7896 7.96217 1.97192 -35.8745 9.97091 3.23571 -23.7788 6.89711 1.45425 -32.4266 6.12122 1.78175 -41.7891 7.59153 2.90182 -27.7662 5.32305 1.31698 -36.9175 -3.43742 -1.14874 -47.4995 -4.21662 -1.85619 -31.6335 -3.00232 -0.850413 -40.6156 -7.41796 -2.7486 -52.3931 -9.00329 -4.43646 -34.7619 -6.50553 -2.03828 -1.06722e-07 9.60495e-07 0 66.5458 -5.85632 5.36964 6.9892e-06 -2.27663e-06 15.5573 0.103763 0.0229501 -0.167859 -4.10661 20.7048 22.2077 -0 0 0 17.4187 0.262801 1.71504 27.5714 7.90531 -1.94192 35.5909 9.9039 -3.18647 23.5927 6.8467 -1.43146 32.1733 6.07889 -1.7543 41.4614 7.5434 -2.85861 27.5497 5.28503 -1.29481 36.6305 -3.41452 1.13227 47.1299 -4.1917 1.82858 31.3878 -2.98143 0.837428 40.2973 -7.37032 2.70699 51.9806 -8.95394 4.37212 34.4901 -6.46137 2.0081 0.312125 -18.748 2.33637 -0.734046 50.0052 0.582825 -1.29417 0.756796 -0.185575 -0.122204 -39.0282 -0.349426 -5.85296 -37.1044 5.15114 -2.79854e-06 51.1387 0.0395647 -4.28876 0.158812 0.0559529 0.62616 -14.3883 2.53497 
-0.355846 97.0575 -0.334083 3.44291 5.63763 -11.52 2.78206 1.16948 -2.19293 2.36871 0.986838 -2.1148 1.06722e-07 -8.53774e-07 0 -4.6851 32.5441 4.07576 -12.3453 -7.12469 -0.77833 1.06722e-07 -8.53774e-07 0 -83.1939 18.948 43.9117 5.69205e-06 -1.03263e-05 -88.5997 -0.483496 0.0338435 0.318981 4.10661 20.7048 -22.2077 -0 0 0 -17.3965 -0.262137 1.71185 -27.5358 7.89604 1.93869 -35.5447 9.89296 3.17835 -23.5624 6.83849 1.42818 -32.1321 6.07198 1.74983 -41.4081 7.53553 2.85148 -27.5145 5.27883 1.29299 -36.5838 -3.41078 -1.12742 -47.0697 -4.18763 -1.82429 -31.3478 -2.97802 -0.836493 -40.2454 -7.36254 -2.70033 -51.9134 -8.94585 -4.36136 -34.4458 -6.45416 -2.00186 1.06722e-07 -8.53774e-07 0 66.3883 -1.81723 6.74765 3.85121e-06 1.77405e-07 14.8022 0.161973 0.00292743 -0.142652 -4.10661 20.7048 22.2077 -0 0 0 17.4917 0.264993 1.72188 27.6885 7.93585 -1.95838 35.7431 9.93991 -3.21168 23.6926 6.87377 -1.44344 32.3093 6.10163 -1.76852 41.6373 7.56927 -2.88179 27.666 5.30545 -1.30684 36.7846 -3.42683 1.1426 47.3283 -4.2051 1.84265 31.5197 -2.99265 0.844872 40.4682 -7.39593 2.72917 52.202 -8.98049 4.40672 34.636 -6.4851 2.02402 -0.24127 -17.5981 2.0425 -0.696637 47.3723 0.532289 -0.798052 1.45913 0.0791294 -0.216843 -37.9665 -0.625573 -6.58024 -35.0411 5.35431 8.83381e-07 49.1132 0 -3.36524 0.745433 0.068528 0.558109 -16.7541 2.40407 
-0.228596 97.9931 -0.724097 4.27901 5.09118 -9.3149 2.90798 1.15871 -1.73726 2.45849 0.982065 -1.69669 -8.00413e-07 -8.53774e-07 0 -0.42076 32.0899 0.687562 -14.8795 -5.93562 -0.843945 -8.00413e-07 -8.53774e-07 0 -83.7907 20.4991 46.5204 5.05957e-06 1.258e-07 -82.0239 -0.387573 0.161789 0.243893 4.10661 20.7048 -22.2077 -0 0 0 -17.0913 -0.253087 1.68372 -27.0468 7.76807 1.87131 -34.9091 9.74173 3.06935 -23.1451 6.72518 1.38024 -31.5643 5.97657 1.69068 -40.6736 7.42662 2.75543 -27.0291 5.19326 1.24739 -35.9405 -3.35909 -1.08857 -46.2411 -4.13105 -1.76453 -30.7968 -2.93096 -0.808904 -39.5319 -7.25482 -2.61013 -50.9888 -8.83337 -4.21847 -33.8365 -6.35457 -1.93506 -8.00413e-07 -8.53774e-07 0 67.0234 3.04995 9.50789 -6.77701e-06 7.80497e-08 13.1541 0.224665 -0.0183366 -0.142652 -4.10661 20.7048 22.2077 -0 0 0 17.5907 0.267977 1.7323 27.8472 7.97718 -1.98063 35.9495 9.98859 -3.24803 23.828 6.91041 -1.45908 32.4936 6.13239 -1.78789 41.8757 7.60421 -2.91339 27.8234 5.33309 -1.32291 36.9933 -3.44346 1.15418 47.5971 -4.22318 1.8625 31.6984 -3.00783 0.855002 40.6997 -7.43051 2.75855 52.5021 -9.01625 4.45337 34.8337 -6.51717 2.04671 -1.41407 -15.7705 1.63562 -0.650768 43.534 0.471468 -0.343219 2.34914 0.0395647 -0.268321 -36.3509 -0.816608 -8.22467 -30.5356 5.11775 9.38187e-07 46.3022 0 -2.15916 1.75432 0.068528 0.494994 -24.7233 2.42707 
0.108084 98.8062 -1.22469 5.42504 4.39477 -6.85622 2.68154 1.11045 -1.14465 2.24638 0.946838 -1.18166 -8.53774e-07 -4.26887e-07 0 1.49132 30.8756 -1.32054 -16.1656 -4.15667 -0.73913 -8.53774e-07 -4.26887e-07 0 -79.9672 15.8144 46.2297 1.77026e-06 -2.30096e-06 -70.6485 0.0390057 0.0541332 0.189746 4.10661 20.7048 -22.2077 -0 0 0 -16.6028 -0.238923 1.63753 -26.2644 7.56205 1.7663 -33.8927 9.49717 2.89939 -22.4776 6.54303 1.30144 -30.6556 5.82262 1.59737 -39.4985 7.24974 2.60622 -26.2522 5.05549 1.17967 -34.9107 -3.27546 -1.02945 -44.9148 -4.03869 -1.67019 -29.9148 -2.85504 -0.764122 -38.3903 -7.08005 -2.46706 -49.5097 -8.64858 -3.9933 -32.8616 -6.19363 -1.82772 -8.53774e-07 -4.26887e-07 0 69.368 6.51719 11.9734 -9.24467e-06 6.84632e-07 12.7582 0.258101 -0.0315789 -0.148037 -4.10661 20.7048 22.2077 -0 0 0 17.6586 0.270033 1.73861 27.9561 8.00548 -1.99598 36.091 10.0219 -3.27324 23.9208 6.93551 -1.47031 32.6199 6.15344 -1.80097 42.0391 7.62809 -2.93428 27.9314 5.35201 -1.33058 37.1363 -3.45483 1.16027 47.7814 -4.23552 1.87674 31.821 -3.01822 0.860477 40.8585 -7.45415 2.77975 52.7079 -9.04063 4.48543 34.9692 -6.53912 2.06157 -2.92933 -13.7605 1.40887 -0.612319 39.6024 0.414958 -0.134151 3.19795 0 -0.266544 -34.5705 -0.856831 -9.3895 -24.9304 5.24737 -4.47351e-07 44.9834 0 -0.896136 2.42679 0 0.51541 -32.7652 2.39787 
0.4278 99.206 -1.7904 6.66878 3.65366 -4.28969 2.07447 1.01767 -0.482949 1.71203 0.880436 -0.616753 1.98785e-16 -4.26887e-07 0 -0.247294 29.3289 -0.548225 -15.0212 -1.70807 -0.46478 1.98785e-16 -4.26887e-07 0 -71.362 6.53644 42.1415 -7.34831e-08 4.39445e-06 -56.1932 0.143763 0.0344419 0.125115 4.10661 20.7048 -22.2077 -0 0 0 -16.0334 -0.222918 1.58309 -25.3536 7.32017 1.64896 -32.71 9.20846 2.70699 -21.7002 6.32965 1.21497 -29.5972 5.64137 1.4925 -38.1301 7.0398 2.43577 -25.3473 4.89377 1.10073 -33.7107 -3.17665 -0.962653 -43.3693 -3.92833 -1.56169 -28.887 -2.76572 -0.71436 -37.0609 -6.87286 -2.30636 -47.7877 -8.42607 -3.73877 -31.7261 -6.00383 -1.70727 1.98785e-16 -4.26887e-07 0 71.8679 13.7093 13.7228 -2.42369e-05 -1.54286e-06 15.3484 0.260622 -0.0609756 0.0969133 -4.10661 20.7048 22.2077 -0 0 0 17.6311 0.269199 1.73501 27.912 7.99402 -1.98931 36.0337 10.0084 -3.2627 23.8832 6.92535 -1.46657 32.5687 6.14492 -1.79662 41.9729 7.61843 -2.92519 27.8877 5.34435 -1.32882 37.0784 -3.45023 1.15892 47.7068 -4.23052 1.87131 31.7713 -3.01402 0.857744 40.7942 -7.44459 2.77214 52.6246 -9.03077 4.47302 34.9143 -6.53024 2.05701 -4.37567 -12.165 1.48197 -0.589952 36.8992 0.377423 -0.186642 3.46644 0 -0.24003 -32.8522 -0.813727 -8.89049 -19.441 5.92401 1.22911e-06 45.6772 0.0559529 0.204626 2.46907 0.0395647 0.491569 -37.2362 1.79619 
